<svg xmlns="http://www.w3.org/2000/svg" width="390" height="844" viewBox="0 0 390 844" role="img" aria-label="每一句，都有依据"><defs><linearGradient id="bg28" x2="1" y2="1"><stop stop-color="#F9FAFE"/><stop offset="1" stop-color="#EFECFA"/></linearGradient><linearGradient id="pr28" x2="1" y2="1"><stop stop-color="#A48AE9" stop-opacity=".8"/><stop offset="1" stop-color="#77D8E5" stop-opacity=".4"/></linearGradient></defs><g font-family="Microsoft YaHei, PingFang SC, sans-serif"><rect x="0" y="0" width="390" height="844" rx="28" fill="url(#bg28)" stroke="none"/><text x="24" y="30" font-size="13" fill="#202438" font-weight="600">9:41</text><text x="308" y="30" font-size="12" fill="#202438" font-weight="400">▮▮  ▰</text><text x="24" y="68" font-size="29" fill="#202438" font-weight="400">‹</text><text x="55" y="65" font-size="14" fill="#626980" font-weight="600">MusicMirror</text><rect x="292" y="45" width="76" height="31" rx="16" fill="#FFFFFF" stroke="#DFE3EF"/><text x="306" y="66" font-size="16" fill="#202438" font-weight="400">•••  ⊙</text><text x="24" y="105" font-size="11" fill="#626980" font-weight="600">证据 / 来源</text><text x="24" y="142" font-size="22" fill="#202438" font-weight="650">每一句，都有依据</text><text x="24" y="178" font-size="11" fill="#626980" font-weight="400">光与回声  /  设计示例</text><rect x="24" y="218" width="342" height="240" rx="24" fill="#FFFFFF" stroke="#DFE3EF"/><rect x="42" y="244" width="306" height="50" rx="12" fill="#F4F2FA" stroke="none"/><text x="57" y="275" font-size="13" fill="#6550B9" font-weight="600">01</text><text x="88" y="275" font-size="15" fill="#202438" font-weight="500">样本与权重</text><text x="327" y="275" font-size="18" fill="#626980" font-weight="400">›</text><rect x="42" y="306" width="306" height="50" rx="12" fill="#F4F2FA" stroke="none"/><text x="57" y="337" font-size="13" fill="#6550B9" font-weight="600">02</text><text x="88" y="337" font-size="15" fill="#202438" font-weight="500">采集与计算时间</text><text x="327" y="337" font-size="18" fill="#626980" font-weight="400">›</text><rect x="42" y="368" width="306" height="50" rx="12" fill="#F4F2FA" stroke="none"/><text x="57" y="399" font-size="13" fill="#6550B9" font-weight="600">03</text><text x="88" y="399" font-size="15" fill="#202438" font-weight="500">字段覆盖与来源</text><text x="327" y="399" font-size="18" fill="#626980" font-weight="400">›</text><text x="44" y="437" font-size="12" fill="#626980" font-weight="400">选择一项，查看详细信息</text><text x="24" y="496" font-size="25" fill="#202438" font-weight="650">前10首，占48%</text><text x="24" y="524" font-size="13" fill="#626980" font-weight="400">以下数字仅用于展示设计结构</text><circle cx="30" cy="562" r="3" fill="#6550B9" stroke="none" stroke-width="1"/><text x="42" y="567" font-size="13" fill="#202438" font-weight="400">输入：长期100首 / 次数权重</text><circle cx="30" cy="597" r="3" fill="#087D91" stroke="none" stroke-width="1"/><text x="42" y="602" font-size="13" fill="#202438" font-weight="400">采集：09.19 14:30 / 计算14:32</text><circle cx="30" cy="632" r="3" fill="#6550B9" stroke="none" stroke-width="1"/><text x="42" y="637" font-size="13" fill="#202438" font-weight="400">元数据覆盖86% / 独立查询14:31</text><rect x="24" y="680" width="342" height="50" rx="16" fill="#25263D" stroke="none"/><text x="45" y="711" font-size="16" fill="#FFFFFF" font-weight="600">查看计算说明</text><text x="329" y="711" font-size="20" fill="#FFFFFF" font-weight="400">→</text><text x="24" y="752" font-size="11" fill="#626980" font-weight="400">样本明细 · 解释边界 · 算法版本</text><path d="M24 788L366 788" stroke="#DFE3EF" stroke-width="1" fill="none"/><text x="45" y="813" font-size="12" fill="#626980" font-weight="400">镜像</text><text x="135" y="813" font-size="12" fill="#6550B9" font-weight="650">探索</text><text x="225" y="813" font-size="12" fill="#626980" font-weight="400">变化</text><text x="315" y="813" font-size="12" fill="#626980" font-weight="400">我的</text><rect x="140" y="832" width="110" height="4" rx="2" fill="#202438" stroke="none"/></g></svg>