<svg xmlns="http://www.w3.org/2000/svg" width="390" height="844" viewBox="0 0 390 844" role="img" aria-label="分享你愿意展示的部分"><defs><linearGradient id="bg35" x2="1" y2="1"><stop stop-color="#111629"/><stop offset="1" stop-color="#232039"/></linearGradient><linearGradient id="pr35" x2="1" y2="1"><stop stop-color="#A48AE9" stop-opacity=".8"/><stop offset="1" stop-color="#77D8E5" stop-opacity=".4"/></linearGradient></defs><g font-family="Microsoft YaHei, PingFang SC, sans-serif"><rect x="0" y="0" width="390" height="844" rx="28" fill="url(#bg35)" stroke="none"/><text x="24" y="30" font-size="13" fill="#F5F3FF" font-weight="600">9:41</text><text x="308" y="30" font-size="12" fill="#F5F3FF" font-weight="400">▮▮  ▰</text><text x="24" y="68" font-size="29" fill="#F5F3FF" font-weight="400">‹</text><text x="55" y="65" font-size="14" fill="#B9BED3" font-weight="600">MusicMirror</text><rect x="292" y="45" width="76" height="31" rx="16" fill="#20263D" stroke="#39405B"/><text x="306" y="66" font-size="16" fill="#F5F3FF" font-weight="400">•••  ⊙</text><text x="24" y="105" font-size="11" fill="#B9BED3" font-weight="600">分享 / 概念功能</text><text x="24" y="142" font-size="22" fill="#F5F3FF" font-weight="650">分享你愿意展示的部分</text><text x="24" y="178" font-size="11" fill="#B9BED3" font-weight="400">光与回声  /  设计示例</text><rect x="24" y="218" width="342" height="240" rx="24" fill="#20263D" stroke="#39405B"/><circle cx="161" cy="319" r="64" fill="url(#pr35)" stroke="#C4B1FF" stroke-width="1"/><circle cx="236" cy="330" r="64" fill="none" stroke="#70D9E9" stroke-width="2"/><ellipse cx="196" cy="322" rx="127" ry="35" transform="rotate(-22 196 322)" fill="none" stroke="#39405B"/><text x="69" y="418" font-size="13" fill="#C4B1FF" font-weight="600">长期聆听</text><text x="255" y="418" font-size="13" fill="#70D9E9" font-weight="600">主动红心</text><text x="24" y="496" font-size="25" fill="#F5F3FF" font-weight="650">新的歌手，熟悉的曲风</text><text x="24" y="524" font-size="13" fill="#B9BED3" font-weight="400">分享预览 · 示例数据</text><circle cx="30" cy="562" r="3" fill="#C4B1FF" stroke="none" stroke-width="1"/><text x="42" y="567" font-size="13" fill="#F5F3FF" font-weight="400">✓ 保留样本范围与数据日期</text><circle cx="30" cy="597" r="3" fill="#70D9E9" stroke="none" stroke-width="1"/><text x="42" y="602" font-size="13" fill="#F5F3FF" font-weight="400">○ 显示昵称与歌曲列表（默认关）</text><circle cx="30" cy="632" r="3" fill="#C4B1FF" stroke="none" stroke-width="1"/><text x="42" y="637" font-size="13" fill="#F5F3FF" font-weight="400">✓ 保留结论边界和示例标记</text><rect x="24" y="680" width="342" height="50" rx="16" fill="#D2C4FA" stroke="none"/><text x="45" y="711" font-size="16" fill="#201A36" font-weight="600">保存分享图片</text><text x="329" y="711" font-size="20" fill="#201A36" font-weight="400">→</text><text x="24" y="752" font-size="11" fill="#B9BED3" font-weight="400">保存后由你决定是否发送</text><path d="M24 788L366 788" stroke="#39405B" stroke-width="1" fill="none"/><text x="45" y="813" font-size="12" fill="#C4B1FF" font-weight="650">镜像</text><text x="135" y="813" font-size="12" fill="#B9BED3" font-weight="400">探索</text><text x="225" y="813" font-size="12" fill="#B9BED3" font-weight="400">变化</text><text x="315" y="813" font-size="12" fill="#B9BED3" font-weight="400">我的</text><rect x="140" y="832" width="110" height="4" rx="2" fill="#F5F3FF" stroke="none"/></g></svg>